<svg width="24" height="25" viewBox="0 0 24 25" fill="none" xmlns="http://www.w3.org/2000/svg">
<path d="M20.3999 20L5.3999 5M10.1999 10.9416C9.82648 11.3533 9.5999 11.894 9.5999 12.4863C9.5999 13.7761 10.6744 14.8217 11.9999 14.8217C12.611 14.8217 13.1688 14.5994 13.5926 14.2334M20.4387 14.8217C21.2649 13.5848 21.5999 12.5761 21.5999 12.5761C21.5999 12.5761 19.4153 5.6 11.9999 5.6C11.5836 5.6 11.1838 5.62199 10.7999 5.66349M17.3999 17.8494C16.0225 18.7281 14.2492 19.3495 11.9999 19.3127C4.67683 19.193 2.3999 12.5761 2.3999 12.5761C2.3999 12.5761 3.45776 9.19808 6.5999 7.14332" stroke="black" stroke-width="2" stroke-linecap="round"/>
</svg>
