<svg xmlns="http://www.w3.org/2000/svg" width="24" height="25" viewBox="0 0 24 25" fill="none">
  <path d="M6.52891 9.80247H6.66894M12 9.80247H12.14M17.3295 9.80247H17.4695M11.4 15.2025H4.53336C3.35515 15.2025 2.40002 14.2473 2.40002 13.0691V6.5358C2.40002 5.35759 3.35515 4.40247 4.53336 4.40247H19.4667C20.6449 4.40247 21.6 5.35759 21.6 6.5358V9.80247M15.4112 14.0975L16.8012 13.4025C17.8147 12.8958 19.0077 12.8958 20.0212 13.4025L21.4112 14.0975C21.4112 14.0975 21.4112 16.2875 21.4112 17.4425C21.4112 18.5975 20.3435 19.3772 18.4112 20.5975C16.4789 19.3772 15.4112 18.3475 15.4112 17.4425V14.0975Z" stroke="black" stroke-width="1.3" stroke-linecap="round" stroke-linejoin="round"/>
</svg>